<?xml version="1.0" encoding="iso-8859-1"?>
<!-- Generator: Adobe Illustrator 16.0.0, SVG Export Plug-In . SVG Version: 6.00 Build 0)  -->
<!DOCTYPE svg PUBLIC "-//W3C//DTD SVG 1.1//EN" "http://www.w3.org/Graphics/SVG/1.1/DTD/svg11.dtd">
<svg version="1.1" id="Capa_1" xmlns="http://www.w3.org/2000/svg" xmlns:xlink="http://www.w3.org/1999/xlink" x="0px" y="0px"
	 width="512px" height="512px" viewBox="0 0 512 512" style="enable-background:new 0 0 512 512;" xml:space="preserve">
<g>
	<path d="M192,144c0,44.183,35.817,80,80,80c44.184,0,80-35.817,80-80s-35.816-80-80-80C227.817,64,192,99.817,192,144z M0,144
		c0,44.183,35.817,80,80,80s80-35.817,80-80s-35.817-80-80-80S0,99.817,0,144z M384,304v-48c0-17.6-14.4-32-32-32h-80H80H32
		c-17.6,0-32,14.4-32,32v160c0,17.6,14.4,32,32,32h320c17.6,0,32-14.4,32-32v-48l128,80V224L384,304z M320,384H64v-96h256V384z"/>
</g>
<g>
</g>
<g>
</g>
<g>
</g>
<g>
</g>
<g>
</g>
<g>
</g>
<g>
</g>
<g>
</g>
<g>
</g>
<g>
</g>
<g>
</g>
<g>
</g>
<g>
</g>
<g>
</g>
<g>
</g>
</svg>
